<?xml version="1.0" standalone="no"?>
<!DOCTYPE svg PUBLIC "-//W3C//DTD SVG 20010904//EN"
 "http://www.w3.org/TR/2001/REC-SVG-20010904/DTD/svg10.dtd">
<svg version="1.0" xmlns="http://www.w3.org/2000/svg"
 width="972.000000pt" height="922.000000pt" viewBox="0 0 972.000000 922.000000"
 preserveAspectRatio="xMidYMid meet">

<g transform="translate(0.000000,922.000000) scale(0.100000,-0.100000)"
fill="#000000" stroke="none">
<path d="M3575 8854 c-207 -35 -295 -58 -510 -129 -96 -32 -242 -88 -274 -106
-9 -4 -54 -24 -101 -44 -214 -91 -664 -354 -977 -570 -220 -153 -476 -348
-587 -448 -138 -124 -228 -213 -263 -260 -36 -49 -38 -63 -17 -134 4 -16 1
-23 -15 -28 -18 -5 -21 -14 -21 -56 0 -53 33 -182 74 -289 82 -215 265 -588
358 -729 27 -41 56 -87 64 -103 8 -16 41 -65 72 -108 66 -92 294 -405 334
-458 41 -54 53 -81 42 -91 -5 -5 -94 -52 -198 -105 -104 -53 -196 -102 -205
-109 -9 -8 -45 -31 -81 -52 -36 -22 -136 -86 -223 -143 -135 -89 -157 -107
-157 -129 0 -15 -12 -42 -27 -62 -45 -58 -67 -93 -87 -137 -17 -39 -17 -43 -1
-74 33 -65 136 -91 374 -97 160 -4 178 -3 227 17 37 15 54 28 56 43 2 11 9 22
16 25 9 3 12 -32 14 -150 2 -205 5 -272 11 -294 27 -94 73 -233 84 -253 18
-37 17 -55 -4 -46 -162 65 -293 76 -448 39 -58 -14 -72 -19 -132 -46 -54 -24
-166 -149 -202 -223 -30 -62 -35 -82 -38 -170 -3 -56 1 -140 9 -190 7 -49 12
-100 10 -112 -2 -12 -26 -44 -53 -71 -57 -56 -151 -92 -241 -92 -57 0 -76 9
-143 71 -43 39 -78 46 -104 20 -44 -44 -16 -92 129 -214 58 -49 240 -128 312
-135 l48 -5 0 -50 c0 -28 -5 -113 -12 -189 l-11 -138 23 -25 c32 -34 73 -32
119 4 60 48 210 111 262 111 40 0 38 -23 -7 -107 -29 -55 -39 -88 -50 -173
-31 -231 -60 -360 -140 -610 -66 -206 -115 -341 -160 -447 -8 -17 -14 -52 -14
-78 0 -41 5 -52 34 -80 31 -29 43 -33 100 -37 36 -2 70 -8 75 -13 13 -14 31
-152 31 -238 0 -40 -9 -169 -20 -287 -11 -118 -20 -223 -20 -232 0 -17 131
-18 2620 -18 l2620 0 0 123 c0 118 19 346 40 492 5 39 12 85 14 103 3 18 10
58 15 90 16 87 51 301 71 422 16 105 30 287 30 401 0 92 -4 116 -29 185 -16
43 -44 108 -63 144 -51 98 -65 147 -48 173 31 49 92 190 96 222 2 11 7 34 13
52 11 39 8 182 -7 275 -13 78 -31 125 -68 173 -24 32 -30 35 -80 35 l-54 0 -2
43 c-2 69 1 110 9 118 4 4 40 24 78 44 39 19 90 49 115 65 25 16 70 43 100 60
30 17 73 41 95 54 98 55 161 89 330 176 99 51 245 128 325 170 178 95 334 178
461 245 53 27 141 74 195 104 54 30 180 96 279 146 99 51 254 130 345 177 91
47 199 100 240 118 98 42 110 54 110 104 0 121 -97 305 -169 321 -36 8 -174
-47 -311 -122 -14 -8 -41 -21 -60 -29 -19 -8 -43 -19 -53 -25 -11 -6 -73 -38
-139 -72 -136 -70 -235 -122 -293 -154 -22 -12 -121 -60 -220 -108 -99 -47
-193 -92 -208 -100 -183 -96 -310 -163 -347 -185 -25 -14 -70 -38 -100 -53
-30 -15 -62 -31 -70 -36 -8 -6 -109 -51 -225 -101 -115 -50 -247 -109 -291
-130 -45 -22 -112 -49 -150 -61 -38 -11 -79 -25 -92 -30 -13 -5 -27 -7 -31 -5
-4 3 -6 51 -3 108 4 109 -2 148 -54 352 -22 82 -25 111 -16 114 24 8 137 87
164 114 74 75 250 323 287 403 12 28 28 61 35 75 7 14 18 45 25 70 7 25 19 65
26 90 45 144 33 382 -25 475 -26 42 -145 153 -206 192 -101 65 -231 138 -279
159 -87 37 -218 91 -277 115 -32 12 -58 26 -58 30 0 5 66 41 148 80 195 95
267 138 325 193 39 37 47 51 47 81 0 29 -6 39 -32 56 -29 18 -43 20 -121 14
-81 -5 -90 -4 -130 19 l-43 25 -89 -20 c-249 -55 -328 -74 -420 -101 -141 -41
-217 -59 -230 -55 -5 3 -20 29 -32 58 -11 30 -36 90 -53 134 -62 151 -133 353
-208 590 -66 205 -70 224 -132 510 -48 228 -61 280 -100 425 -11 41 -29 104
-39 140 -27 90 -114 478 -127 563 -6 43 -13 53 -78 111 -69 61 -126 91 -221
115 -57 15 -413 12 -510 -5z m1174 -2154 c29 -85 62 -180 75 -210 60 -144 69
-167 74 -199 4 -31 3 -33 -14 -25 -30 14 -286 17 -429 4 -251 -21 -527 -62
-648 -96 -51 -13 -117 -32 -147 -40 -107 -29 -356 -106 -415 -129 -33 -12
-112 -42 -175 -65 -354 -128 -663 -299 -889 -491 -20 -16 -67 -44 -104 -61
-62 -29 -71 -30 -102 -20 -18 7 -50 10 -71 6 -36 -5 -40 -3 -58 28 -40 70
-188 283 -232 332 -39 45 -96 162 -62 128 21 -21 40 -13 98 41 78 74 510 307
870 470 63 29 272 111 345 136 175 61 201 69 385 122 41 11 104 30 140 41 125
39 252 69 395 93 44 8 112 21 150 30 154 36 390 65 535 66 80 1 159 5 175 8
18 5 35 3 41 -3 6 -6 35 -81 63 -166z m181 -475 c0 -8 -7 -15 -15 -15 -8 0
-15 7 -15 15 0 8 7 15 15 15 8 0 15 -7 15 -15z m-216 -627 c7 -13 17 -36 21
-53 12 -54 78 -203 110 -250 11 -16 25 -37 30 -46 9 -15 63 -98 105 -164 11
-16 36 -50 55 -75 19 -25 38 -52 42 -60 4 -8 19 -35 33 -60 54 -93 143 -378
154 -492 3 -31 9 -63 12 -71 6 -18 46 -30 68 -21 25 10 126 133 190 235 l60
93 13 -33 c17 -40 3 -162 -32 -291 -53 -193 -74 -405 -56 -554 7 -51 14 -143
15 -204 3 -93 1 -115 -13 -131 -9 -10 -61 -42 -116 -71 -55 -29 -104 -56 -110
-60 -5 -4 -68 -38 -140 -76 -135 -71 -151 -81 -281 -178 -43 -33 -106 -70
-139 -84 -57 -23 -257 -119 -300 -145 -11 -7 -85 -50 -163 -97 -223 -134 -265
-158 -300 -174 -18 -9 -46 -25 -62 -36 -31 -22 -94 -26 -165 -10 -22 5 -74 16
-115 25 -41 9 -104 26 -139 38 l-63 21 -24 -27 c-13 -16 -24 -34 -24 -42 0
-36 142 -104 220 -105 19 -1 48 -6 64 -13 26 -12 27 -14 11 -27 -19 -16 -33
-24 -91 -56 -22 -12 -48 -31 -58 -43 -11 -12 -24 -21 -30 -21 -6 0 -27 -13
-46 -28 -51 -41 -167 -112 -184 -112 -7 0 -19 14 -26 30 -7 17 -24 40 -38 50
-24 20 -24 21 -7 40 14 16 29 19 76 18 65 -2 85 9 106 59 27 66 -11 197 -90
316 -43 64 -61 77 -106 77 -24 0 -34 7 -46 30 -9 18 -35 40 -65 55 -40 20 -51
32 -59 62 -6 21 -11 45 -11 53 -1 8 -20 50 -43 93 -23 42 -68 124 -99 181 -90
166 -146 331 -197 583 -12 55 -21 110 -21 121 0 12 29 51 65 89 87 93 152 181
209 283 26 47 52 92 56 100 37 61 157 290 164 311 4 14 18 39 30 53 l21 28 25
-20 c14 -10 35 -21 48 -25 19 -4 26 0 37 26 l14 32 0 -30 c0 -35 -10 -87 -34
-170 -9 -33 -29 -109 -45 -170 -15 -60 -35 -130 -44 -154 -20 -55 -20 -85 0
-105 23 -23 50 -20 149 19 127 50 186 79 300 148 113 68 125 77 254 196 51 47
96 87 100 89 3 1 12 -11 19 -27 40 -89 81 -101 165 -47 113 72 243 241 302
389 17 45 39 96 47 112 31 62 56 153 67 245 6 52 16 140 22 195 6 55 12 113
14 130 7 53 63 74 89 33z m-2708 -1829 c4 -7 23 -9 49 -6 57 8 67 -5 60 -78
-4 -46 -2 -62 15 -85 13 -19 20 -44 20 -77 0 -59 26 -263 40 -315 6 -20 19
-85 30 -144 27 -154 20 -159 -117 -88 -131 68 -249 150 -280 195 -15 22 -36
50 -46 62 -35 42 -67 127 -73 195 -5 56 -2 77 19 131 43 113 159 221 238 221
21 0 41 -5 45 -11z m3740 -1013 c25 -27 48 -65 55 -89 21 -78 32 -99 77 -142
110 -107 208 -101 259 15 14 33 29 57 34 54 5 -3 9 -41 9 -84 0 -121 -24 -177
-202 -460 -48 -77 -117 -126 -263 -191 -80 -35 -298 -116 -399 -149 -264 -84
-273 -85 -305 -44 -12 15 -21 32 -21 40 0 7 -33 47 -72 89 -64 66 -78 76 -112
79 -30 2 -45 10 -72 42 -18 21 -33 44 -34 49 0 21 40 74 85 111 37 32 54 39
88 39 37 0 43 4 63 39 12 21 27 69 32 107 18 119 46 146 137 132 54 -8 73 -19
120 -68 34 -36 48 -44 93 -50 81 -11 148 2 173 33 18 24 20 35 14 117 -4 49
-14 117 -22 150 -24 90 -26 120 -13 158 19 60 60 78 169 73 63 -2 65 -3 107
-50z m334 9 c0 -13 -4 -27 -10 -30 -6 -4 -10 8 -10 30 0 22 4 34 10 30 6 -3
10 -17 10 -30z m-3934 -182 c54 -34 59 -50 40 -108 -9 -25 -16 -54 -16 -63 0
-10 -6 -26 -14 -37 -7 -11 -22 -45 -34 -75 -17 -46 -108 -231 -161 -328 -12
-23 -12 -30 5 -62 15 -28 26 -36 53 -38 18 -2 38 1 44 7 6 6 18 11 28 11 9 0
32 12 52 28 20 15 58 43 84 62 26 19 69 57 95 85 l47 49 27 -59 c39 -88 71
-152 111 -220 19 -33 47 -82 62 -110 60 -111 106 -182 129 -200 14 -10 46 -20
71 -23 43 -4 49 -1 88 38 23 23 46 40 51 36 5 -3 12 -23 15 -43 11 -87 46
-235 61 -258 33 -49 22 -52 -93 -18 -49 14 -58 14 -106 -1 -28 -9 -68 -16 -87
-16 -19 0 -49 -7 -66 -15 -58 -29 -137 -47 -272 -60 -119 -12 -137 -16 -153
-36 -13 -17 -17 -32 -12 -56 5 -28 3 -33 -14 -33 -11 0 -26 -3 -34 -6 -8 -3
-21 2 -28 11 -45 54 -47 55 -121 55 -40 0 -102 -5 -138 -10 -36 -5 -146 -13
-245 -19 -220 -13 -407 -31 -420 -41 -5 -5 -37 -13 -70 -20 -33 -6 -91 -21
-128 -31 -38 -11 -71 -19 -73 -17 -2 2 3 16 11 30 23 46 73 227 85 313 5 33
18 105 29 160 12 55 26 127 32 160 13 74 34 175 59 280 10 44 26 123 35 175 9
52 22 115 30 140 59 198 103 294 130 284 8 -3 49 8 92 24 117 44 217 57 349
45 60 -6 136 -18 169 -26 73 -20 114 -21 120 -4 18 52 25 67 31 67 4 0 26 -12
50 -27z m1911 -1240 c7 -11 14 -37 16 -58 2 -38 1 -40 -58 -70 -89 -47 -90
-55 -17 -216 97 -214 98 -233 19 -350 -41 -62 -43 -64 -112 -82 -39 -10 -83
-24 -100 -32 -70 -32 -201 -55 -341 -59 -130 -4 -146 -3 -197 18 -62 25 -87
42 -87 61 0 17 -29 112 -46 152 -15 34 -18 56 -7 67 4 4 6 67 4 141 l-3 134
54 52 c66 63 222 168 308 207 50 23 92 32 185 42 66 6 125 14 130 16 6 1 62 2
125 0 100 -3 116 -6 127 -23z"/>
<path d="M4700 5059 c-113 -50 -182 -187 -108 -213 26 -9 32 -5 84 52 49 55
60 62 93 62 20 0 46 -7 57 -15 10 -8 31 -15 46 -15 15 0 30 -4 33 -10 12 -19
35 -10 51 21 15 30 15 32 -6 54 -30 32 -141 85 -176 84 -16 0 -49 -9 -74 -20z"/>
<path d="M5170 4245 c-171 -19 -522 -67 -562 -77 -45 -10 -68 -32 -68 -62 0
-22 27 -56 44 -56 5 0 22 -12 39 -26 29 -24 36 -26 87 -19 110 14 103 17 112
-45 13 -83 41 -115 111 -127 52 -9 72 -6 120 15 59 26 87 77 87 159 0 32 4 64
9 72 8 13 45 23 151 40 93 15 105 25 93 82 -4 23 -15 35 -39 45 -37 16 -38 16
-184 -1z"/>
<path d="M3430 4010 c-231 -29 -318 -47 -443 -87 -71 -23 -80 -29 -93 -59 -28
-68 14 -95 119 -75 34 6 94 17 132 24 89 16 101 13 115 -27 11 -34 59 -85 97
-105 27 -14 95 -14 125 0 13 5 39 32 57 59 28 41 33 56 28 85 -7 42 12 65 53
65 35 0 82 17 92 33 16 25 8 66 -16 82 -36 24 -108 25 -266 5z"/>
<path d="M4648 3493 c-8 -10 -23 -38 -33 -63 -24 -57 -72 -119 -99 -130 -26
-10 -46 5 -46 35 0 25 -29 55 -54 55 -9 0 -51 -36 -93 -80 -110 -116 -161
-124 -199 -33 -26 61 -104 53 -104 -10 0 -46 30 -97 79 -134 66 -51 138 -42
231 27 53 40 83 49 95 30 3 -5 31 -10 61 -10 88 0 165 61 218 174 34 71 41
108 27 135 -14 26 -62 28 -83 4z"/>
</g>
</svg>
